HIERARCHY
ROOT joint_Root
{
	OFFSET 0.0 0.0 0.0
	CHANNELS 6 Xposition Yposition Zposition Zrotation Xrotation Yrotation 
	JOINT Hips
	{
		OFFSET 4.5925 91.4895 -427.239
		CHANNELS 6 Xposition Yposition Zposition Zrotation Xrotation Yrotation 
		JOINT Spine
		{
			OFFSET 15.7357 0.0 0.0
			CHANNELS 6 Xposition Yposition Zposition Zrotation Xrotation Yrotation 
			JOINT Chest
			{
				OFFSET 8.98455 -0.406207 0.0
				CHANNELS 6 Xposition Yposition Zposition Zrotation Xrotation Yrotation 
				JOINT Neck
				{
					OFFSET 16.3773 0.0 0.0
					CHANNELS 6 Xposition Yposition Zposition Zrotation Xrotation Yrotation 
					JOINT Head
					{
						OFFSET 6.45672 0.0 0.0
						CHANNELS 6 Xposition Yposition Zposition Zrotation Xrotation Yrotation 
						End Site
						{
							OFFSET 0.0 0.0 0.0
						}
					}
				}
				JOINT Shoulder_L
				{
					OFFSET 12.9942 -0.242716 4.98039
					CHANNELS 6 Xposition Yposition Zposition Zrotation Xrotation Yrotation 
					JOINT UpperArm_L
					{
						OFFSET 5.34809 0.0 0.0
						CHANNELS 6 Xposition Yposition Zposition Zrotation Xrotation Yrotation 
						JOINT LowerArm_L
						{
							OFFSET 24.3286 1.87007e-05 0.0
							CHANNELS 6 Xposition Yposition Zposition Zrotation Xrotation Yrotation 
							JOINT Hand_L
							{
								OFFSET 22.2916 0.0 0.0
								CHANNELS 6 Xposition Yposition Zposition Zrotation Xrotation Yrotation 
								End Site
								{
									OFFSET 0.0 0.0 0.0
								}
							}
						}
					}
				}
				JOINT Shoulder_R
				{
					OFFSET 12.9945 -0.242716 -4.98039
					CHANNELS 6 Xposition Yposition Zposition Zrotation Xrotation Yrotation 
					JOINT UpperArm_R
					{
						OFFSET -5.34813 0.0 0.0
						CHANNELS 6 Xposition Yposition Zposition Zrotation Xrotation Yrotation 
						JOINT LowerArm_R
						{
							OFFSET -24.3289 0.000322201 0.0
							CHANNELS 6 Xposition Yposition Zposition Zrotation Xrotation Yrotation 
							JOINT Hand_R
							{
								OFFSET -22.2915 -0.000108084 0.0
								CHANNELS 6 Xposition Yposition Zposition Zrotation Xrotation Yrotation 
								End Site
								{
									OFFSET 0.0 0.0 0.0
								}
							}
						}
					}
				}
			}
		}
		JOINT UpperLeg_L
		{
			OFFSET -2.19248 -6.46944 0.0
			CHANNELS 6 Xposition Yposition Zposition Zrotation Xrotation Yrotation 
			JOINT LowerLeg_L
			{
				OFFSET 39.0811 0.0 -1.23785e-05
				CHANNELS 6 Xposition Yposition Zposition Zrotation Xrotation Yrotation 
				JOINT Foot_L
				{
					OFFSET 40.9854 0.0 -1.26872e-05
					CHANNELS 6 Xposition Yposition Zposition Zrotation Xrotation Yrotation 
					JOINT Toes_L
					{
						OFFSET 11.7543 0.0 0.0
						CHANNELS 6 Xposition Yposition Zposition Zrotation Xrotation Yrotation 
						End Site
						{
							OFFSET 0.0 0.0 0.0
						}
					}
				}
			}
		}
		JOINT UpperLeg_R
		{
			OFFSET -2.19251 6.46944 0.0
			CHANNELS 6 Xposition Yposition Zposition Zrotation Xrotation Yrotation 
			JOINT LowerLeg_R
			{
				OFFSET -39.0811 -0.00228153 -0.0401928
				CHANNELS 6 Xposition Yposition Zposition Zrotation Xrotation Yrotation 
				JOINT Foot_R
				{
					OFFSET -40.9854 0.0 0.0
					CHANNELS 6 Xposition Yposition Zposition Zrotation Xrotation Yrotation 
					JOINT Toes_R
					{
						OFFSET -11.7543 0.0 0.0
						CHANNELS 6 Xposition Yposition Zposition Zrotation Xrotation Yrotation 
						End Site
						{
							OFFSET 0.0 0.0 0.0
						}
					}
				}
			}
		}
	}
}
MOTION
Frames:	9
Frame Time:	0.0333333
0.000000 0.000000 0.000000 0.000000 0.000000 -0.000000 -2.959730 91.013900 1.491190 90.340300 -1.938480 14.310700 15.735700 0.000005 -0.000001 84.161600 83.013900 -84.140600 8.984550 -0.406207 -0.000000 6.135450 -1.417660 0.118112 16.377300 -0.000001 -0.000001 32.703100 -4.123570 3.411120 6.456720 -0.000001 -0.000000 16.282500 -4.256870 9.999740 12.994200 -0.242716 4.980390 -86.132200 -8.487010 -65.387500 5.348090 -0.000007 -0.000001 -45.889800 -44.706900 -82.953100 24.328600 0.000019 0.000005 10.652600 16.556200 -33.428200 22.291600 -0.000001 0.000005 17.658000 5.206430 2.557440 12.994500 -0.242716 -4.980390 91.547200 -4.717660 -71.819200 -5.348130 -0.000001 -0.000004 -50.956400 -49.645000 -81.643100 -24.328900 0.000322 -0.000009 3.444410 4.468340 -37.697100 -22.291500 -0.000108 -0.000004 27.869700 5.360450 -1.693580 -2.192480 -6.469440 -0.000000 -172.399000 -13.738100 7.245250 39.081100 -0.000007 -0.000012 -0.191570 0.366260 27.611800 40.985400 -0.000006 -0.000013 -0.195277 8.936460 -69.815800 11.754300 -0.000000 0.000003 -0.000189 -0.001762 -16.644100 -2.192510 6.469440 -0.000001 170.438000 24.356800 -170.693000 -39.081100 -0.002282 -0.040193 -0.221814 0.426253 27.840600 -40.985400 0.000008 0.000006 4.984620 16.455200 -71.921800 -11.754300 -0.000006 -0.000006 -0.001467 -0.021836 -17.461000
0.000000 0.000000 0.000000 0.000000 0.000000 -0.000000 -3.162750 91.009800 1.406790 90.310400 -1.795600 14.509500 15.735700 0.000005 -0.000001 84.293900 83.039600 -84.255600 8.984550 -0.406207 -0.000000 6.087630 -1.380870 0.150028 16.377300 -0.000001 -0.000001 32.567500 -4.104170 3.314550 6.456720 -0.000001 -0.000000 16.198900 -4.200180 9.936020 12.994200 -0.242716 4.980390 -86.056000 -8.688580 -65.468000 5.348090 -0.000007 -0.000001 -44.977400 -43.126500 -85.143900 24.328600 0.000019 0.000005 11.313500 16.340600 -35.416400 22.291600 -0.000001 0.000005 17.560700 5.225910 2.060970 12.994500 -0.242716 -4.980390 91.587000 -4.871690 -71.931800 -5.348130 -0.000001 -0.000004 -49.693400 -47.994800 -83.174700 -24.328900 0.000322 -0.000009 3.515290 4.326950 -39.161800 -22.291500 -0.000108 -0.000004 27.846200 5.371900 -2.045450 -2.192480 -6.469440 -0.000000 -172.209000 -13.597900 7.328130 39.081100 -0.000007 -0.000012 -0.193005 0.368272 27.658500 40.985400 -0.000006 -0.000013 -0.308457 9.059850 -69.725800 11.754300 -0.000000 0.000003 -0.000199 -0.001844 -16.647100 -2.192510 6.469440 -0.000001 170.436000 24.590300 -170.469000 -39.081100 -0.002282 -0.040193 -0.221558 0.425626 27.848500 -40.985400 0.000008 0.000006 5.163710 16.535800 -71.964200 -11.754300 -0.000006 -0.000006 -0.001518 -0.022505 -17.488200
0.000000 0.000000 0.000000 0.000000 0.000000 -0.000000 -3.370190 91.016900 1.290890 90.259900 -1.608840 14.720700 15.735700 0.000005 -0.000001 84.398400 83.041400 -84.341600 8.984550 -0.406207 -0.000000 6.086700 -1.355600 0.185387 16.377300 -0.000001 -0.000001 32.342600 -4.118280 3.242490 6.456720 -0.000001 -0.000000 16.260100 -4.142030 9.974050 12.994200 -0.242716 4.980390 -85.968600 -8.914620 -65.543500 5.348090 -0.000007 -0.000001 -43.764900 -41.620200 -87.327700 24.328600 0.000019 0.000005 12.114900 16.308200 -37.394900 22.291600 -0.000001 0.000005 17.562100 5.248590 1.469790 12.994500 -0.242716 -4.980390 91.621700 -5.017440 -72.062700 -5.348130 -0.000001 -0.000004 -48.161000 -46.355800 -84.613000 -24.328900 0.000322 -0.000009 3.576910 4.181270 -40.616500 -22.291500 -0.000108 -0.000004 27.699200 5.383960 -2.423600 -2.192480 -6.469440 -0.000000 -171.988000 -13.467500 7.431550 39.081100 -0.000007 -0.000012 -0.194015 0.370204 27.658200 40.985400 -0.000006 -0.000013 -0.422244 9.215090 -69.595500 11.754300 -0.000000 0.000003 -0.000185 -0.001732 -16.643000 -2.192510 6.469440 -0.000001 170.477000 24.886800 -170.229000 -39.081100 -0.002282 -0.040193 -0.211500 0.407409 27.800700 -40.985400 0.000008 0.000006 5.348150 16.567700 -71.953600 -11.754300 -0.000006 -0.000006 -0.001525 -0.022603 -17.492200
0.000000 0.000000 0.000000 0.000000 0.000000 -0.000000 -3.572030 91.021800 1.149830 90.220200 -1.428780 14.883700 15.735700 0.000005 -0.000001 84.451600 83.043600 -84.378400 8.984550 -0.406207 -0.000000 6.083730 -1.342580 0.217559 16.377300 -0.000001 -0.000001 32.166300 -4.122440 3.263090 6.456720 -0.000001 -0.000000 16.250200 -4.117210 9.943340 12.994200 -0.242716 4.980390 -85.899600 -9.127070 -65.680200 5.348090 -0.000007 -0.000001 -42.170500 -40.362000 -89.316600 24.328600 0.000019 0.000005 12.930500 16.181500 -39.483300 22.291600 -0.000001 0.000005 17.429700 5.271160 0.866592 12.994500 -0.242716 -4.980390 91.659200 -5.158720 -72.143700 -5.348130 -0.000001 -0.000004 -46.510500 -44.637300 -86.150100 -24.328900 0.000322 -0.000009 3.684500 4.098880 -42.025100 -22.291500 -0.000108 -0.000004 27.468800 5.396110 -2.811660 -2.192480 -6.469440 -0.000000 -171.815000 -13.301900 7.444230 39.081100 -0.000007 -0.000012 -0.195986 0.373589 27.682000 40.985400 -0.000006 -0.000013 -0.544346 9.314380 -69.454600 11.754300 -0.000000 0.000003 -0.000203 -0.001877 -16.648300 -2.192510 6.469440 -0.000001 170.520000 25.138000 -170.072000 -39.081100 -0.002282 -0.040193 -0.210788 0.406387 27.781700 -40.985400 0.000008 0.000006 5.523460 16.618700 -71.943400 -11.754300 -0.000006 -0.000006 -0.001474 -0.021925 -17.464600
0.000000 0.000000 0.000000 0.000000 0.000000 -0.000000 -3.781680 91.027200 0.987592 90.186200 -1.272830 14.973700 15.735700 0.000005 -0.000001 84.515200 83.040600 -84.422400 8.984550 -0.406207 -0.000000 6.091390 -1.328090 0.256168 16.377300 -0.000001 -0.000001 32.047900 -4.145140 3.294010 6.456720 -0.000001 -0.000000 16.202500 -4.107480 9.945810 12.994200 -0.242716 4.980390 -85.833700 -9.348240 -65.845800 5.348090 -0.000007 -0.000001 -40.555400 -39.391800 -91.209800 24.328600 0.000019 0.000005 13.986900 16.218800 -41.726300 22.291600 -0.000001 0.000005 17.435600 5.289350 0.369000 12.994500 -0.242716 -4.980390 91.699500 -5.310580 -72.225200 -5.348130 -0.000001 -0.000004 -44.893300 -43.016100 -87.693000 -24.328900 0.000322 -0.000009 4.013940 4.231330 -43.570500 -22.291500 -0.000108 -0.000004 27.233500 5.403990 -3.067680 -2.192480 -6.469440 -0.000000 -171.642000 -13.237800 7.377380 39.081100 -0.000007 -0.000012 -0.195700 0.372592 27.710500 40.985400 -0.000006 -0.000013 -0.641927 9.486680 -69.305900 11.754300 -0.000000 0.000003 -0.000194 -0.001805 -16.645700 -2.192510 6.469440 -0.000001 170.597000 25.439400 -170.022000 -39.081100 -0.002282 -0.040193 -0.210304 0.405452 27.782500 -40.985400 0.000008 0.000006 5.720270 16.681700 -71.930100 -11.754300 -0.000006 -0.000006 -0.001806 -0.026258 -17.640800
0.000000 0.000000 0.000000 0.000000 0.000000 -0.000000 -3.979560 91.046600 0.808037 90.195700 -1.113260 15.077100 15.735700 0.000005 -0.000001 84.492300 83.028100 -84.396300 8.984550 -0.406207 -0.000000 6.115840 -1.336020 0.263133 16.377300 -0.000001 -0.000001 31.947400 -4.091440 3.384780 6.456720 -0.000001 -0.000000 16.261800 -4.073930 9.956970 12.994200 -0.242716 4.980390 -85.715400 -9.630760 -65.876100 5.348090 -0.000007 -0.000001 -39.313700 -38.423900 -93.280900 24.328600 0.000019 0.000005 14.899600 16.105000 -43.806000 22.291600 -0.000001 0.000005 17.565300 5.310550 -0.225540 12.994500 -0.242716 -4.980390 91.710100 -5.380200 -72.338100 -5.348130 -0.000001 -0.000004 -43.017100 -41.484800 -89.066400 -24.328900 0.000322 -0.000009 4.351240 4.342030 -45.150700 -22.291500 -0.000108 -0.000004 26.959800 5.412720 -3.355560 -2.192480 -6.469440 -0.000000 -171.543000 -13.098900 7.353380 39.081100 -0.000007 -0.000012 -0.195559 0.373585 27.630700 40.985400 -0.000006 -0.000013 -0.768506 9.579980 -69.086800 11.754300 -0.000000 0.000003 -0.000184 -0.001723 -16.642700 -2.192510 6.469440 -0.000001 170.685000 25.630900 -169.978000 -39.081100 -0.002282 -0.040193 -0.202147 0.390692 27.738900 -40.985400 0.000008 0.000006 5.882620 16.648300 -71.868000 -11.754300 -0.000006 -0.000006 -0.001646 -0.024197 -17.557000
0.000000 0.000000 0.000000 0.000000 0.000000 -0.000000 -4.183790 91.062700 0.605105 90.137700 -0.995383 15.073500 15.735700 0.000005 -0.000001 84.494600 83.026200 -84.356500 8.984550 -0.406207 -0.000000 6.120180 -1.336420 0.347282 16.377300 -0.000001 -0.000001 31.861000 -4.045720 3.409090 6.456720 -0.000001 -0.000000 16.372300 -4.067000 10.046100 12.994200 -0.242716 4.980390 -85.637500 -9.833080 -65.929500 5.348090 -0.000007 -0.000001 -38.330600 -37.550800 -95.291900 24.328600 0.000019 0.000005 15.552300 15.745400 -45.723800 22.291600 -0.000001 0.000005 17.919400 5.330140 -0.789531 12.994500 -0.242716 -4.980390 91.726100 -5.433000 -72.344400 -5.348130 -0.000001 -0.000004 -41.484300 -39.870700 -90.650100 -24.328900 0.000322 -0.000009 5.105170 4.810980 -46.814700 -22.291500 -0.000108 -0.000004 26.889800 5.422450 -3.681660 -2.192480 -6.469440 -0.000000 -171.386000 -12.998000 7.162630 39.081100 -0.000007 -0.000012 -0.199360 0.380872 27.629300 40.985400 -0.000006 -0.000013 -0.892316 9.682620 -68.883800 11.754300 -0.000000 0.000003 -0.000204 -0.001884 -16.648600 -2.192510 6.469440 -0.000001 170.885000 25.871000 -170.074000 -39.081100 -0.002282 -0.040193 -0.201291 0.389771 27.696000 -40.985400 0.000008 0.000006 6.057980 16.647400 -71.783600 -11.754300 -0.000006 -0.000006 -0.001709 -0.025017 -17.590400
0.000000 0.000000 0.000000 0.000000 0.000000 -0.000000 -4.368280 91.080500 0.403946 90.188800 -0.898820 15.122600 15.735700 0.000005 -0.000001 84.545300 82.999700 -84.387400 8.984550 -0.406207 -0.000000 6.174360 -1.329350 0.387170 16.377300 -0.000001 -0.000001 31.834500 -4.001610 3.406680 6.456720 -0.000001 -0.000000 16.477200 -3.958480 10.108200 12.994200 -0.242716 4.980390 -85.572200 -10.044100 -66.059200 5.348090 -0.000007 -0.000001 -37.464900 -36.778700 -96.989000 24.328600 0.000019 0.000005 15.529600 14.875700 -47.266300 22.291600 -0.000001 0.000005 18.035600 5.352670 -1.457320 12.994500 -0.242716 -4.980390 91.727300 -5.465430 -72.430900 -5.348130 -0.000001 -0.000004 -40.590400 -38.210700 -92.326800 -24.328900 0.000322 -0.000009 6.065700 5.350300 -48.738400 -22.291500 -0.000108 -0.000004 26.604500 5.431260 -3.982380 -2.192480 -6.469440 -0.000000 -171.307000 -13.043500 7.105420 39.081100 -0.000007 -0.000012 -0.197258 0.378341 27.536700 40.985400 -0.000006 -0.000013 -0.994924 9.807930 -68.654000 11.754300 -0.000000 0.000003 -0.000178 -0.001679 -16.641100 -2.192510 6.469440 -0.000001 170.958000 26.031800 -170.141000 -39.081100 -0.002282 -0.040193 -0.197059 0.381614 27.701900 -40.985400 0.000008 0.000006 6.223200 16.638500 -71.727800 -11.754300 -0.000006 -0.000006 -0.001803 -0.026227 -17.639500
0.000000 0.000000 0.000000 0.000000 0.000000 -0.000000 -4.557370 91.083300 0.184106 90.191100 -0.831016 15.153100 15.735700 0.000005 -0.000001 84.614700 82.955900 -84.406700 8.984550 -0.406207 -0.000000 6.263760 -1.321160 0.487836 16.377300 -0.000001 -0.000001 31.710900 -3.915720 3.439890 6.456720 -0.000001 -0.000000 16.605100 -3.857530 10.139600 12.994200 -0.242716 4.980390 -85.529700 -10.159100 -66.095000 5.348090 -0.000007 -0.000001 -36.502700 -36.110800 -98.436500 24.328600 0.000019 0.000005 15.825200 14.521000 -48.504000 22.291600 -0.000001 0.000005 17.830900 5.355740 -1.550110 12.994500 -0.242716 -4.980390 91.725300 -5.517300 -72.604600 -5.348130 -0.000001 -0.000004 -40.064600 -36.670000 -93.877900 -24.328900 0.000322 -0.000009 6.781730 5.592700 -50.669600 -22.291500 -0.000108 -0.000004 26.863600 5.441250 -4.329480 -2.192480 -6.469440 -0.000000 -171.195000 -13.023300 6.931690 39.081100 -0.000007 -0.000012 -0.199796 0.382633 27.572100 40.985400 -0.000006 -0.000013 -1.084070 9.968980 -68.466200 11.754300 -0.000000 0.000003 -0.000194 -0.001804 -16.645700 -2.192510 6.469440 -0.000001 171.149000 26.095400 -170.312000 -39.081100 -0.002282 -0.040193 -0.195919 0.378182 27.780400 -40.985400 0.000008 0.000006 6.390720 16.562700 -71.680700 -11.754300 -0.000006 -0.000006 -0.001744 -0.025461 -17.608400
